<svg id="LOGO" xmlns="http://www.w3.org/2000/svg" viewBox="0 0 153.07 51.75"><defs><style>.cls-1{fill:#fff;}.cls-2{fill:#26c4f4;}</style></defs><path class="cls-1" d="M47,11.39H45.76v-.88h3.55v.88H48.1v3.07H47Z"/><path class="cls-1" d="M52.46,13.7H50.79l-.31.76H49.33l1.75-4h1.1l1.76,4H52.77Zm-.33-.83-.51-1.27-.5,1.27Z"/><path class="cls-1" d="M56.27,13.41h-.61v1.05H54.54v-4h1.81a2.21,2.21,0,0,1,.93.17A1.36,1.36,0,0,1,58.11,12a1.4,1.4,0,0,1-.2.75,1.42,1.42,0,0,1-.58.5l.86,1.24H57Zm.53-1.87a.77.77,0,0,0-.52-.15h-.62v1.16h.62a.77.77,0,0,0,.52-.15A.52.52,0,0,0,57,12,.54.54,0,0,0,56.8,11.54Z"/><path class="cls-1" d="M59.79,11.39H58.58v-.88h3.54v.88H60.91v3.07H59.79Z"/><path class="cls-1" d="M63.22,14.06a1.8,1.8,0,0,1-.49-1.36V10.51h1.12v2.16c0,.63.25.95.75.95s.75-.32.75-.95V10.51h1.1V12.7A1.8,1.8,0,0,1,66,14.06a2.2,2.2,0,0,1-2.74,0Z"/><path class="cls-1" d="M71.15,13.41h-.61v1.05H69.42v-4h1.81a2.29,2.29,0,0,1,.94.17,1.46,1.46,0,0,1,.61.51A1.42,1.42,0,0,1,73,12a1.32,1.32,0,0,1-.77,1.25l.85,1.24h-1.2Zm.53-1.87a.77.77,0,0,0-.52-.15h-.62v1.16h.62a.77.77,0,0,0,.52-.15.52.52,0,0,0,.18-.43A.54.54,0,0,0,71.68,11.54Z"/><path class="cls-1" d="M76.54,13.7H74.87l-.31.76H73.42l1.74-4h1.11l1.75,4H76.86Zm-.32-.83-.51-1.27-.51,1.27Z"/><path class="cls-1" d="M80.15,13l-.42.45v1H78.62v-4h1.11v1.64l1.53-1.64H82.5l-1.62,1.75,1.7,2.2h-1.3Z"/><path class="cls-1" d="M86.34,13.6v.86H83.16v-4h3.1v.86h-2V12H86v.84H84.27v.72Z"/><path class="cls-1" d="M91,10.51v4h-.92l-1.75-2.1v2.1h-1.1v-4h.92l1.75,2.11V10.51Z"/><path class="cls-1" d="M92.08,10.51H94a2.63,2.63,0,0,1,1.15.24,1.75,1.75,0,0,1,.78.69,1.92,1.92,0,0,1,.28,1.05,1.88,1.88,0,0,1-.28,1,1.75,1.75,0,0,1-.78.69,2.63,2.63,0,0,1-1.15.24H92.08Zm1.83,3.06a1.13,1.13,0,0,0,.82-.29,1,1,0,0,0,.31-.79,1.06,1.06,0,0,0-.31-.8,1.17,1.17,0,0,0-.82-.29H93.2v2.17Z"/><path class="cls-1" d="M97.5,14.06A1.8,1.8,0,0,1,97,12.7V10.51h1.12v2.16c0,.63.25.95.75.95s.75-.32.75-.95V10.51h1.1V12.7a1.8,1.8,0,0,1-.49,1.36,2.2,2.2,0,0,1-2.74,0Z"/><path class="cls-1" d="M102.23,14.43a2.42,2.42,0,0,1-.74-.32l.37-.83a2.54,2.54,0,0,0,.62.29,2.35,2.35,0,0,0,.69.1c.43,0,.64-.1.64-.32a.26.26,0,0,0-.18-.25,2.94,2.94,0,0,0-.59-.17,7.44,7.44,0,0,1-.75-.21,1.2,1.2,0,0,1-.51-.35.94.94,0,0,1-.22-.66,1.14,1.14,0,0,1,.2-.65,1.26,1.26,0,0,1,.59-.46,2.29,2.29,0,0,1,1-.17,3.25,3.25,0,0,1,.77.08,2.4,2.4,0,0,1,.67.26l-.34.83a2.37,2.37,0,0,0-1.1-.3.92.92,0,0,0-.49.1.29.29,0,0,0-.15.25.25.25,0,0,0,.18.24,4,4,0,0,0,.58.17,5.24,5.24,0,0,1,.75.2,1.41,1.41,0,0,1,.52.35,1,1,0,0,1,.22.66,1.13,1.13,0,0,1-.2.64,1.3,1.3,0,0,1-.6.46,2.29,2.29,0,0,1-1,.17A3.59,3.59,0,0,1,102.23,14.43Z"/><path class="cls-1" d="M105.71,10.51h1.12v3.07h1.89v.88h-3Z"/><path class="cls-1" d="M109.45,10.51h1.12v4h-1.12Z"/><path class="cls-1" d="M113.17,13l-.41.45v1h-1.11v-4h1.11v1.64l1.53-1.64h1.23l-1.61,1.75,1.7,2.2h-1.3Z"/><path class="cls-1" d="M119.64,13l-.42.45v1h-1.11v-4h1.11v1.64l1.53-1.64H122l-1.62,1.75,1.7,2.2h-1.3Z"/><path class="cls-1" d="M123.38,14.28a2,2,0,0,1-.79-.74,2.13,2.13,0,0,1,0-2.11,2,2,0,0,1,.79-.74,2.44,2.44,0,0,1,1.13-.26,2.47,2.47,0,0,1,1.13.26,2,2,0,0,1,0,3.59,2.35,2.35,0,0,1-1.13.26A2.33,2.33,0,0,1,123.38,14.28Zm1.67-.8a1,1,0,0,0,.38-.4,1.15,1.15,0,0,0,.15-.59,1.19,1.19,0,0,0-.15-.6,1,1,0,0,0-.38-.39,1,1,0,0,0-.54-.15,1.06,1.06,0,0,0-.55.15,1,1,0,0,0-.38.39,1.18,1.18,0,0,0-.14.6,1.15,1.15,0,0,0,.14.59,1,1,0,0,0,.38.4,1.15,1.15,0,0,0,.55.14A1.09,1.09,0,0,0,125.05,13.48Z"/><path class="cls-1" d="M127.58,10.51h1.12v3.07h1.89v.88h-3Z"/><path class="cls-1" d="M131.31,10.51h1.12v3.07h1.89v.88h-3Z"/><path class="cls-1" d="M138.22,13.6v.86H135v-4h3.11v.86h-2V12h1.76v.84h-1.76v.72Z"/><path class="cls-1" d="M139.13,10.51H141a2.67,2.67,0,0,1,1.16.24,1.87,1.87,0,0,1,.78.69,2,2,0,0,1,.27,1.05,2,2,0,0,1-.27,1,1.87,1.87,0,0,1-.78.69,2.67,2.67,0,0,1-1.16.24h-1.87ZM141,13.57a1.09,1.09,0,0,0,.81-.29,1,1,0,0,0,.31-.79,1,1,0,0,0-.31-.8,1.13,1.13,0,0,0-.81-.29h-.71v2.17Z"/><path class="cls-1" d="M147.4,13.58v.88h-3.54v-.7l2-2.37h-1.94v-.88h3.41v.7l-2,2.37Zm-.57-4.26-.73.86h-.93l-.74-.86h.72l.48.43.49-.43Z"/><path class="cls-1" d="M47,18.18H45.76v-.89h3.55v.89H48.1v3.07H47Z"/><path class="cls-1" d="M52.46,20.49H50.79l-.31.76H49.33l1.75-4h1.1l1.76,4H52.77Zm-.33-.83-.51-1.27-.5,1.27Z"/><path class="cls-1" d="M56.27,20.2h-.61v1.05H54.54v-4h1.81a2.2,2.2,0,0,1,.93.18,1.36,1.36,0,0,1,.83,1.29,1.4,1.4,0,0,1-.2.75,1.42,1.42,0,0,1-.58.5l.86,1.24H57Zm.53-1.87a.77.77,0,0,0-.52-.15h-.62v1.16h.62a.77.77,0,0,0,.52-.15.54.54,0,0,0,.18-.43A.52.52,0,0,0,56.8,18.33Z"/><path class="cls-1" d="M59.79,18.18H58.58v-.89h3.54v.89H60.91v3.07H59.79Z"/><path class="cls-1" d="M63.22,20.85a1.8,1.8,0,0,1-.49-1.36v-2.2h1.12v2.17c0,.63.25.95.75.95s.75-.32.75-.95V17.29h1.1v2.2A1.8,1.8,0,0,1,66,20.85a2.2,2.2,0,0,1-2.74,0Z"/><path class="cls-1" d="M73.44,17.29l-1.7,4h-1.1l-1.69-4h1.21l1.07,2.58,1.1-2.58Z"/><path class="cls-1" d="M74.77,21.07a2.06,2.06,0,0,1-.78-.74,2,2,0,0,1,.78-2.85,2.35,2.35,0,0,1,1.13-.26,2.33,2.33,0,0,1,1.13.26,2,2,0,0,1,.79.74,2.13,2.13,0,0,1,0,2.11,2.08,2.08,0,0,1-.79.74,2.44,2.44,0,0,1-1.13.26A2.47,2.47,0,0,1,74.77,21.07Zm1.67-.81a.92.92,0,0,0,.39-.39,1.3,1.3,0,0,0,.14-.6,1.25,1.25,0,0,0-.14-.59,1,1,0,0,0-.39-.4,1.11,1.11,0,0,0-1.08,0,1.15,1.15,0,0,0-.39.4,1.25,1.25,0,0,0-.14.59,1.3,1.3,0,0,0,.14.6,1,1,0,0,0,.39.39,1,1,0,0,0,1.08,0Z"/><path class="cls-1" d="M79.83,21.07a2,2,0,0,1-1.06-1.8,2,2,0,0,1,.28-1.06,2,2,0,0,1,.78-.73A2.29,2.29,0,0,1,81,17.22a2.41,2.41,0,0,1,1,.19,1.87,1.87,0,0,1,.72.55l-.71.65a1.19,1.19,0,0,0-.94-.47,1.2,1.2,0,0,0-.57.14,1,1,0,0,0-.39.4,1.25,1.25,0,0,0-.14.59,1.3,1.3,0,0,0,.14.6.92.92,0,0,0,.39.39,1.1,1.1,0,0,0,.57.15,1.19,1.19,0,0,0,.94-.47l.71.65a1.87,1.87,0,0,1-.72.55,2.41,2.41,0,0,1-1,.19A2.29,2.29,0,0,1,79.83,21.07Z"/><path class="cls-1" d="M86,20.49H84.34l-.31.76H82.89l1.75-4h1.1l1.75,4H86.33Zm-.33-.83-.51-1.27-.51,1.27Z"/><path class="cls-1" d="M88.74,18.18H87.52v-.89h3.55v.89H89.86v3.07H88.74Z"/><path class="cls-1" d="M91.77,17.29h1.12v4H91.77Z"/><path class="cls-1" d="M94.84,21.07a2,2,0,0,1-.79-.74,2.06,2.06,0,0,1,0-2.11,2,2,0,0,1,.79-.74,2.56,2.56,0,0,1,2.25,0,2,2,0,0,1,.79.74,2.06,2.06,0,0,1,0,2.11,2,2,0,0,1-.79.74,2.56,2.56,0,0,1-2.25,0Zm1.67-.81a1,1,0,0,0,.38-.39,1.18,1.18,0,0,0,.14-.6,1.15,1.15,0,0,0-.14-.59,1,1,0,0,0-.38-.4,1.11,1.11,0,0,0-.54-.14,1.1,1.1,0,0,0-.55.14,1,1,0,0,0-.38.4,1.15,1.15,0,0,0-.14.59,1.18,1.18,0,0,0,.14.6,1,1,0,0,0,.38.39,1,1,0,0,0,.55.15A1,1,0,0,0,96.51,20.26Z"/><path class="cls-1" d="M102.81,17.29v4h-.93l-1.75-2.11v2.11H99v-4H100l1.75,2.11V17.29Z"/><path class="cls-1" d="M106.53,20.49h-1.67l-.31.76h-1.14l1.74-4h1.11l1.75,4h-1.17Zm-.33-.83-.5-1.27-.51,1.27Z"/><path class="cls-1" d="M108.61,17.29h1.12v3.08h1.89v.88h-3Z"/><path class="cls-1" d="M115.13,21.07a2,2,0,0,1-1.06-1.8,2,2,0,0,1,.28-1.06,2,2,0,0,1,.78-.73,2.29,2.29,0,0,1,1.12-.26,2.41,2.41,0,0,1,1,.19A1.87,1.87,0,0,1,118,18l-.71.65a1.19,1.19,0,0,0-.94-.47,1.2,1.2,0,0,0-.57.14,1,1,0,0,0-.39.4,1.25,1.25,0,0,0-.14.59,1.3,1.3,0,0,0,.14.6.92.92,0,0,0,.39.39,1.1,1.1,0,0,0,.57.15,1.19,1.19,0,0,0,.94-.47l.71.65a1.87,1.87,0,0,1-.72.55,2.41,2.41,0,0,1-1,.19A2.29,2.29,0,0,1,115.13,21.07Z"/><path class="cls-1" d="M119.51,21.07a2.06,2.06,0,0,1-.78-.74,2,2,0,0,1,.78-2.85,2.35,2.35,0,0,1,1.13-.26,2.33,2.33,0,0,1,1.13.26,2,2,0,0,1,.79.74,2.13,2.13,0,0,1,0,2.11,2.08,2.08,0,0,1-.79.74,2.44,2.44,0,0,1-1.13.26A2.47,2.47,0,0,1,119.51,21.07Zm1.67-.81a.92.92,0,0,0,.39-.39,1.3,1.3,0,0,0,.14-.6,1.25,1.25,0,0,0-.14-.59,1,1,0,0,0-.39-.4,1.11,1.11,0,0,0-1.08,0,1.15,1.15,0,0,0-.39.4,1.25,1.25,0,0,0-.14.59,1.3,1.3,0,0,0,.14.6,1,1,0,0,0,.39.39,1,1,0,0,0,1.08,0Z"/><path class="cls-1" d="M123.71,17.29h1.12v3.08h1.89v.88h-3Z"/><path class="cls-1" d="M127.45,17.29h1.12v3.08h1.89v.88h-3Z"/><path class="cls-1" d="M134.36,20.39v.86h-3.18v-4h3.11v.87h-2v.67h1.76v.83h-1.76v.73Z"/><path class="cls-1" d="M137.91,19.19h1v1.64a2.35,2.35,0,0,1-.78.37,2.93,2.93,0,0,1-.88.13,2.29,2.29,0,0,1-1.12-.26,2,2,0,0,1-1.06-1.8,2,2,0,0,1,.28-1.06,1.92,1.92,0,0,1,.79-.73,2.33,2.33,0,0,1,1.13-.26,2.62,2.62,0,0,1,1,.18,1.89,1.89,0,0,1,.73.54l-.71.64a1.27,1.27,0,0,0-1-.44,1.14,1.14,0,0,0-.82.31,1.1,1.1,0,0,0-.31.82,1.15,1.15,0,0,0,.14.59,1,1,0,0,0,.4.4,1.11,1.11,0,0,0,.58.15,1.5,1.5,0,0,0,.6-.13Z"/><path class="cls-1" d="M143.08,20.39v.86H139.9v-4H143v.87h-2v.67h1.76v.83H141v.73Z"/><circle class="cls-2" cx="32.55" cy="15.9" r="8.93"/><circle class="cls-1" cx="48.85" cy="35.85" r="8.93"/><path class="cls-1" d="M33.31,35.88l6.33-6.33a8.94,8.94,0,1,0,0,12.62Z"/><polygon class="cls-1" points="5.67 7.87 15.03 24.1 24.39 7.87 5.67 7.87"/></svg>